<mxfile host="app.diagrams.net" modified="2022-09-26T06:13:29.846Z" agent="5.0 (Macintosh; Intel Mac OS X 10_15_7) AppleWebKit/537.36 (KHTML, like Gecko) Chrome/105.0.0.0 Safari/537.36 Edg/105.0.1343.50" etag="OfejDMt39uTY2er1_t8O" version="20.3.6" type="github" pages="2">
  <diagram id="T2TmQAWpMwrT0eOuISGU" name="第 1 页">
    <mxGraphModel dx="1077" dy="703" grid="1" gridSize="10" guides="1" tooltips="1" connect="1" arrows="1" fold="1" page="1" pageScale="1" pageWidth="827" pageHeight="1169" math="0" shadow="0">
      <root>
        <mxCell id="0" />
        <mxCell id="1" parent="0" />
        <mxCell id="dcGf15FAC06Pwwm3CJWd-1" style="edgeStyle=orthogonalEdgeStyle;rounded=0;orthogonalLoop=1;jettySize=auto;html=1;entryX=0.5;entryY=1;entryDx=0;entryDy=0;fontFamily=Comic Sans MS;fillColor=#dae8fc;strokeColor=#6c8ebf;sketch=1;" parent="1" source="dcGf15FAC06Pwwm3CJWd-3" target="dcGf15FAC06Pwwm3CJWd-7" edge="1">
          <mxGeometry relative="1" as="geometry" />
        </mxCell>
        <mxCell id="dcGf15FAC06Pwwm3CJWd-2" style="edgeStyle=orthogonalEdgeStyle;rounded=0;orthogonalLoop=1;jettySize=auto;html=1;entryX=0.5;entryY=1;entryDx=0;entryDy=0;fontFamily=Comic Sans MS;fillColor=#d5e8d4;strokeColor=#82b366;sketch=1;" parent="1" source="dcGf15FAC06Pwwm3CJWd-3" target="dcGf15FAC06Pwwm3CJWd-10" edge="1">
          <mxGeometry relative="1" as="geometry" />
        </mxCell>
        <mxCell id="dcGf15FAC06Pwwm3CJWd-3" value="User" style="outlineConnect=0;fontColor=#232F3E;gradientColor=none;strokeColor=#232F3E;fillColor=none;dashed=0;verticalLabelPosition=bottom;verticalAlign=top;align=center;html=1;fontSize=12;fontStyle=0;aspect=fixed;shape=mxgraph.aws4.resourceIcon;resIcon=mxgraph.aws4.user;fontFamily=Comic Sans MS;sketch=0;" parent="1" vertex="1">
          <mxGeometry x="410" y="600" width="60" height="60" as="geometry" />
        </mxCell>
        <mxCell id="dcGf15FAC06Pwwm3CJWd-4" style="edgeStyle=orthogonalEdgeStyle;rounded=0;orthogonalLoop=1;jettySize=auto;html=1;entryX=0;entryY=0.5;entryDx=0;entryDy=0;fontFamily=Comic Sans MS;fillColor=#dae8fc;strokeColor=#6c8ebf;sketch=1;" parent="1" source="dcGf15FAC06Pwwm3CJWd-7" target="dcGf15FAC06Pwwm3CJWd-14" edge="1">
          <mxGeometry relative="1" as="geometry">
            <Array as="points">
              <mxPoint x="210" y="355" />
            </Array>
          </mxGeometry>
        </mxCell>
        <mxCell id="dcGf15FAC06Pwwm3CJWd-5" style="edgeStyle=orthogonalEdgeStyle;rounded=0;orthogonalLoop=1;jettySize=auto;html=1;entryX=0;entryY=0.5;entryDx=0;entryDy=0;fontFamily=Comic Sans MS;fillColor=#dae8fc;strokeColor=#6c8ebf;startArrow=none;sketch=1;" parent="1" source="dcGf15FAC06Pwwm3CJWd-50" target="dcGf15FAC06Pwwm3CJWd-19" edge="1">
          <mxGeometry relative="1" as="geometry">
            <Array as="points">
              <mxPoint x="210" y="455" />
            </Array>
          </mxGeometry>
        </mxCell>
        <mxCell id="dcGf15FAC06Pwwm3CJWd-6" value="" style="edgeStyle=orthogonalEdgeStyle;curved=1;orthogonalLoop=1;jettySize=auto;html=1;fontFamily=Comic Sans MS;fillColor=#dae8fc;strokeColor=#6c8ebf;sketch=1;" parent="1" source="dcGf15FAC06Pwwm3CJWd-7" target="dcGf15FAC06Pwwm3CJWd-15" edge="1">
          <mxGeometry relative="1" as="geometry" />
        </mxCell>
        <mxCell id="dcGf15FAC06Pwwm3CJWd-7" value="analytics.zhihuiya.com" style="rounded=0;whiteSpace=wrap;html=1;fontFamily=Comic Sans MS;fillColor=#dae8fc;strokeColor=#6c8ebf;fillStyle=solid;sketch=1;" parent="1" vertex="1">
          <mxGeometry x="140" y="530" width="140" height="50" as="geometry" />
        </mxCell>
        <mxCell id="dcGf15FAC06Pwwm3CJWd-8" value="" style="edgeStyle=orthogonalEdgeStyle;curved=1;orthogonalLoop=1;jettySize=auto;html=1;fontFamily=Comic Sans MS;fillColor=#d5e8d4;strokeColor=#82b366;sketch=1;" parent="1" source="dcGf15FAC06Pwwm3CJWd-10" target="dcGf15FAC06Pwwm3CJWd-15" edge="1">
          <mxGeometry relative="1" as="geometry" />
        </mxCell>
        <mxCell id="dcGf15FAC06Pwwm3CJWd-9" style="edgeStyle=orthogonalEdgeStyle;rounded=0;orthogonalLoop=1;jettySize=auto;html=1;entryX=1;entryY=0.25;entryDx=0;entryDy=0;fontFamily=Comic Sans MS;startArrow=none;startFill=0;fillColor=#d5e8d4;strokeColor=#82b366;sketch=1;" parent="1" target="dcGf15FAC06Pwwm3CJWd-14" edge="1">
          <mxGeometry relative="1" as="geometry">
            <Array as="points">
              <mxPoint x="700" y="343" />
            </Array>
            <mxPoint x="700" y="530" as="sourcePoint" />
          </mxGeometry>
        </mxCell>
        <mxCell id="dcGf15FAC06Pwwm3CJWd-53" value="&lt;font face=&quot;Comic Sans MS&quot;&gt;Redirect to&lt;/font&gt;" style="edgeLabel;html=1;align=center;verticalAlign=middle;resizable=0;points=[];" parent="dcGf15FAC06Pwwm3CJWd-9" vertex="1" connectable="0">
          <mxGeometry x="-0.4417" y="-4" relative="1" as="geometry">
            <mxPoint as="offset" />
          </mxGeometry>
        </mxCell>
        <mxCell id="dcGf15FAC06Pwwm3CJWd-88" style="edgeStyle=orthogonalEdgeStyle;rounded=0;sketch=1;orthogonalLoop=1;jettySize=auto;html=1;fontFamily=Comic Sans MS;jumpStyle=none;fillColor=#d5e8d4;strokeColor=#82b366;" parent="1" source="dcGf15FAC06Pwwm3CJWd-10" target="dcGf15FAC06Pwwm3CJWd-87" edge="1">
          <mxGeometry relative="1" as="geometry">
            <mxPoint x="810" y="460" as="targetPoint" />
            <Array as="points">
              <mxPoint x="730" y="460" />
            </Array>
          </mxGeometry>
        </mxCell>
        <mxCell id="dcGf15FAC06Pwwm3CJWd-94" value="Request With Core Token" style="edgeLabel;html=1;align=center;verticalAlign=middle;resizable=0;points=[];fontFamily=Comic Sans MS;" parent="dcGf15FAC06Pwwm3CJWd-88" vertex="1" connectable="0">
          <mxGeometry x="-0.3467" y="-2" relative="1" as="geometry">
            <mxPoint x="83" y="5" as="offset" />
          </mxGeometry>
        </mxCell>
        <mxCell id="dcGf15FAC06Pwwm3CJWd-90" style="edgeStyle=orthogonalEdgeStyle;rounded=0;sketch=1;jumpStyle=none;orthogonalLoop=1;jettySize=auto;html=1;entryX=1;entryY=0.5;entryDx=0;entryDy=0;shadow=0;fontFamily=Comic Sans MS;startArrow=none;fillColor=#d5e8d4;strokeColor=#82b366;" parent="1" source="dcGf15FAC06Pwwm3CJWd-91" target="dcGf15FAC06Pwwm3CJWd-19" edge="1">
          <mxGeometry relative="1" as="geometry">
            <Array as="points" />
          </mxGeometry>
        </mxCell>
        <mxCell id="dcGf15FAC06Pwwm3CJWd-97" style="edgeStyle=orthogonalEdgeStyle;rounded=0;sketch=1;jumpStyle=none;orthogonalLoop=1;jettySize=auto;html=1;shadow=0;fontFamily=Comic Sans MS;exitX=0.75;exitY=1;exitDx=0;exitDy=0;fillColor=#fff2cc;strokeColor=#d6b656;" parent="1" source="dcGf15FAC06Pwwm3CJWd-10" target="dcGf15FAC06Pwwm3CJWd-74" edge="1">
          <mxGeometry relative="1" as="geometry">
            <Array as="points">
              <mxPoint x="705" y="620" />
              <mxPoint x="1188" y="620" />
            </Array>
          </mxGeometry>
        </mxCell>
        <mxCell id="dcGf15FAC06Pwwm3CJWd-98" value="Request With Inno Token" style="edgeLabel;html=1;align=center;verticalAlign=middle;resizable=0;points=[];fontFamily=Comic Sans MS;" parent="dcGf15FAC06Pwwm3CJWd-97" vertex="1" connectable="0">
          <mxGeometry x="-0.0561" y="-1" relative="1" as="geometry">
            <mxPoint as="offset" />
          </mxGeometry>
        </mxCell>
        <mxCell id="dcGf15FAC06Pwwm3CJWd-10" value="yunchuang.inno.com" style="rounded=0;whiteSpace=wrap;html=1;fontFamily=Comic Sans MS;fillColor=#fff2cc;strokeColor=#d6b656;fillStyle=solid;sketch=1;" parent="1" vertex="1">
          <mxGeometry x="600" y="530" width="140" height="50" as="geometry" />
        </mxCell>
        <mxCell id="dcGf15FAC06Pwwm3CJWd-11" value="1" style="ellipse;whiteSpace=wrap;html=1;aspect=fixed;strokeWidth=2;fontFamily=Tahoma;spacingBottom=4;spacingRight=2;strokeColor=#6c8ebf;fillColor=#dae8fc;fillStyle=solid;" parent="1" vertex="1">
          <mxGeometry x="220" y="640" width="20" height="20" as="geometry" />
        </mxCell>
        <mxCell id="dcGf15FAC06Pwwm3CJWd-12" value="Browses to" style="text;html=1;align=center;verticalAlign=middle;resizable=0;points=[];autosize=1;strokeColor=none;fillColor=none;fontFamily=Comic Sans MS;" parent="1" vertex="1">
          <mxGeometry x="240" y="640" width="80" height="20" as="geometry" />
        </mxCell>
        <mxCell id="dcGf15FAC06Pwwm3CJWd-13" value="" style="edgeStyle=orthogonalEdgeStyle;rounded=0;orthogonalLoop=1;jettySize=auto;html=1;fontFamily=Comic Sans MS;startArrow=none;startFill=0;sketch=1;" parent="1" source="dcGf15FAC06Pwwm3CJWd-14" target="dcGf15FAC06Pwwm3CJWd-19" edge="1">
          <mxGeometry relative="1" as="geometry" />
        </mxCell>
        <mxCell id="dcGf15FAC06Pwwm3CJWd-54" style="edgeStyle=orthogonalEdgeStyle;rounded=0;orthogonalLoop=1;jettySize=auto;html=1;entryX=1;entryY=0.25;entryDx=0;entryDy=0;fontFamily=Comic Sans MS;fillColor=#d5e8d4;strokeColor=#82b366;exitX=0.75;exitY=0;exitDx=0;exitDy=0;sketch=1;" parent="1" source="dcGf15FAC06Pwwm3CJWd-10" target="dcGf15FAC06Pwwm3CJWd-19" edge="1">
          <mxGeometry relative="1" as="geometry">
            <Array as="points">
              <mxPoint x="700" y="530" />
              <mxPoint x="700" y="443" />
            </Array>
          </mxGeometry>
        </mxCell>
        <mxCell id="dcGf15FAC06Pwwm3CJWd-59" value="&lt;span style=&quot;font-size: 12px; background-color: rgb(248, 249, 250);&quot;&gt;CheckSession&lt;/span&gt;" style="edgeLabel;html=1;align=center;verticalAlign=middle;resizable=0;points=[];fontFamily=Comic Sans MS;" parent="dcGf15FAC06Pwwm3CJWd-54" vertex="1" connectable="0">
          <mxGeometry x="0.0725" y="1" relative="1" as="geometry">
            <mxPoint y="-6" as="offset" />
          </mxGeometry>
        </mxCell>
        <mxCell id="dcGf15FAC06Pwwm3CJWd-14" value="account.zhihuiya.com" style="rounded=0;whiteSpace=wrap;html=1;fontFamily=Comic Sans MS;fillColor=#f5f5f5;fontColor=#333333;strokeColor=#666666;fillStyle=solid;sketch=1;" parent="1" vertex="1">
          <mxGeometry x="370" y="330" width="140" height="50" as="geometry" />
        </mxCell>
        <mxCell id="dcGf15FAC06Pwwm3CJWd-15" value="Browser Cookie Storage" style="rounded=0;whiteSpace=wrap;html=1;fontFamily=Comic Sans MS;fillColor=#ffe6cc;strokeColor=#d79b00;fillStyle=solid;sketch=1;" parent="1" vertex="1">
          <mxGeometry x="370" y="530" width="140" height="50" as="geometry" />
        </mxCell>
        <mxCell id="dcGf15FAC06Pwwm3CJWd-16" value="" style="edgeStyle=orthogonalEdgeStyle;orthogonalLoop=1;jettySize=auto;html=1;fontFamily=Comic Sans MS;rounded=0;startArrow=classic;startFill=1;sketch=1;" parent="1" source="dcGf15FAC06Pwwm3CJWd-19" target="dcGf15FAC06Pwwm3CJWd-15" edge="1">
          <mxGeometry relative="1" as="geometry" />
        </mxCell>
        <mxCell id="dcGf15FAC06Pwwm3CJWd-17" style="edgeStyle=orthogonalEdgeStyle;rounded=0;orthogonalLoop=1;jettySize=auto;html=1;entryX=0.571;entryY=0;entryDx=0;entryDy=0;entryPerimeter=0;fontFamily=Comic Sans MS;startArrow=none;startFill=0;exitX=0;exitY=0.75;exitDx=0;exitDy=0;fillColor=#dae8fc;strokeColor=#6c8ebf;sketch=1;" parent="1" source="dcGf15FAC06Pwwm3CJWd-19" target="dcGf15FAC06Pwwm3CJWd-7" edge="1">
          <mxGeometry relative="1" as="geometry" />
        </mxCell>
        <mxCell id="dcGf15FAC06Pwwm3CJWd-71" style="edgeStyle=orthogonalEdgeStyle;rounded=0;orthogonalLoop=1;jettySize=auto;html=1;fontFamily=Comic Sans MS;exitX=1;exitY=0.75;exitDx=0;exitDy=0;fillColor=#d5e8d4;strokeColor=#82b366;sketch=1;entryX=0.25;entryY=0;entryDx=0;entryDy=0;" parent="1" source="dcGf15FAC06Pwwm3CJWd-19" target="dcGf15FAC06Pwwm3CJWd-10" edge="1">
          <mxGeometry relative="1" as="geometry" />
        </mxCell>
        <mxCell id="dcGf15FAC06Pwwm3CJWd-72" value="&lt;span style=&quot;font-size: 12px; background-color: rgb(248, 249, 250);&quot;&gt;Sends JWT and redirects&lt;/span&gt;" style="edgeLabel;html=1;align=center;verticalAlign=middle;resizable=0;points=[];fontFamily=Comic Sans MS;" parent="dcGf15FAC06Pwwm3CJWd-71" vertex="1" connectable="0">
          <mxGeometry x="-0.236" y="-1" relative="1" as="geometry">
            <mxPoint x="13" y="20" as="offset" />
          </mxGeometry>
        </mxCell>
        <mxCell id="dcGf15FAC06Pwwm3CJWd-19" value="passport.zhihuiya.com" style="rounded=0;whiteSpace=wrap;html=1;fontFamily=Comic Sans MS;fillColor=#ffe6cc;strokeColor=#d79b00;fillStyle=solid;sketch=1;" parent="1" vertex="1">
          <mxGeometry x="370" y="430" width="140" height="50" as="geometry" />
        </mxCell>
        <mxCell id="dcGf15FAC06Pwwm3CJWd-20" value="2" style="ellipse;whiteSpace=wrap;html=1;aspect=fixed;strokeWidth=2;fontFamily=Tahoma;spacingBottom=4;spacingRight=2;strokeColor=#6c8ebf;fillStyle=solid;fillColor=#dae8fc;sketch=1;" parent="1" vertex="1">
          <mxGeometry x="205" y="330" width="20" height="20" as="geometry" />
        </mxCell>
        <mxCell id="dcGf15FAC06Pwwm3CJWd-21" value="Redirects to Login Form" style="text;html=1;align=center;verticalAlign=middle;resizable=0;points=[];autosize=1;strokeColor=none;fillColor=none;fontFamily=Comic Sans MS;sketch=1;" parent="1" vertex="1">
          <mxGeometry x="220" y="330" width="150" height="20" as="geometry" />
        </mxCell>
        <mxCell id="dcGf15FAC06Pwwm3CJWd-22" value="6" style="ellipse;whiteSpace=wrap;html=1;aspect=fixed;strokeWidth=2;fontFamily=Tahoma;spacingBottom=4;spacingRight=2;strokeColor=#6c8ebf;fillStyle=solid;fillColor=#dae8fc;sketch=1;" parent="1" vertex="1">
          <mxGeometry x="215" y="425" width="20" height="20" as="geometry" />
        </mxCell>
        <mxCell id="dcGf15FAC06Pwwm3CJWd-23" value="CheckSession" style="text;html=1;align=center;verticalAlign=middle;resizable=0;points=[];autosize=1;strokeColor=none;fillColor=none;fontFamily=Comic Sans MS;sketch=1;" parent="1" vertex="1">
          <mxGeometry x="240" y="430" width="90" height="20" as="geometry" />
        </mxCell>
        <mxCell id="dcGf15FAC06Pwwm3CJWd-24" value="3" style="ellipse;whiteSpace=wrap;html=1;aspect=fixed;strokeWidth=2;fontFamily=Tahoma;spacingBottom=4;spacingRight=2;strokeColor=#6c8ebf;fillStyle=solid;fillColor=#dae8fc;" parent="1" vertex="1">
          <mxGeometry x="380" y="260" width="20" height="20" as="geometry" />
        </mxCell>
        <mxCell id="dcGf15FAC06Pwwm3CJWd-25" value="User logs in" style="text;html=1;align=center;verticalAlign=middle;resizable=0;points=[];autosize=1;strokeColor=none;fillColor=none;fontFamily=Comic Sans MS;" parent="1" vertex="1">
          <mxGeometry x="400" y="260" width="80" height="20" as="geometry" />
        </mxCell>
        <mxCell id="dcGf15FAC06Pwwm3CJWd-26" style="edgeStyle=orthogonalEdgeStyle;orthogonalLoop=1;jettySize=auto;html=1;entryX=0.75;entryY=0;entryDx=0;entryDy=0;fontFamily=Comic Sans MS;exitX=0.25;exitY=0;exitDx=0;exitDy=0;curved=1;sketch=1;" parent="1" source="dcGf15FAC06Pwwm3CJWd-14" target="dcGf15FAC06Pwwm3CJWd-14" edge="1">
          <mxGeometry relative="1" as="geometry">
            <Array as="points">
              <mxPoint x="405" y="290" />
              <mxPoint x="475" y="290" />
            </Array>
          </mxGeometry>
        </mxCell>
        <mxCell id="dcGf15FAC06Pwwm3CJWd-27" value="LoginSubmit" style="text;html=1;align=center;verticalAlign=middle;resizable=0;points=[];autosize=1;strokeColor=none;fillColor=none;fontFamily=Comic Sans MS;" parent="1" vertex="1">
          <mxGeometry x="460" y="400" width="80" height="20" as="geometry" />
        </mxCell>
        <mxCell id="dcGf15FAC06Pwwm3CJWd-28" value="4" style="ellipse;whiteSpace=wrap;html=1;aspect=fixed;strokeWidth=2;fontFamily=Tahoma;spacingBottom=4;spacingRight=2;strokeColor=#6c8ebf;fillStyle=solid;fillColor=#dae8fc;sketch=1;" parent="1" vertex="1">
          <mxGeometry x="414" y="400" width="20" height="20" as="geometry" />
        </mxCell>
        <mxCell id="dcGf15FAC06Pwwm3CJWd-29" value="5" style="ellipse;whiteSpace=wrap;html=1;aspect=fixed;strokeWidth=2;fontFamily=Tahoma;spacingBottom=4;spacingRight=2;strokeColor=#6c8ebf;fillStyle=solid;fillColor=#dae8fc;sketch=1;" parent="1" vertex="1">
          <mxGeometry x="450" y="500" width="20" height="20" as="geometry" />
        </mxCell>
        <mxCell id="dcGf15FAC06Pwwm3CJWd-30" value="Store Cookies" style="text;html=1;align=center;verticalAlign=middle;resizable=0;points=[];autosize=1;strokeColor=none;fillColor=none;fontFamily=Comic Sans MS;" parent="1" vertex="1">
          <mxGeometry x="470" y="500" width="90" height="20" as="geometry" />
        </mxCell>
        <mxCell id="dcGf15FAC06Pwwm3CJWd-31" value="7" style="ellipse;whiteSpace=wrap;html=1;aspect=fixed;strokeWidth=2;fontFamily=Tahoma;spacingBottom=4;spacingRight=2;strokeColor=#6c8ebf;fillStyle=solid;fillColor=#dae8fc;sketch=1;" parent="1" vertex="1">
          <mxGeometry x="225" y="480" width="20" height="20" as="geometry" />
        </mxCell>
        <mxCell id="dcGf15FAC06Pwwm3CJWd-32" value="Sends JWT and redirects" style="text;html=1;align=center;verticalAlign=middle;resizable=0;points=[];autosize=1;strokeColor=none;fillColor=none;fontFamily=Comic Sans MS;sketch=1;" parent="1" vertex="1">
          <mxGeometry x="240" y="480" width="160" height="20" as="geometry" />
        </mxCell>
        <mxCell id="dcGf15FAC06Pwwm3CJWd-33" style="edgeStyle=orthogonalEdgeStyle;orthogonalLoop=1;jettySize=auto;html=1;fontFamily=Comic Sans MS;startArrow=none;startFill=0;curved=1;fillColor=#dae8fc;strokeColor=#6c8ebf;sketch=1;" parent="1" target="dcGf15FAC06Pwwm3CJWd-7" edge="1">
          <mxGeometry relative="1" as="geometry">
            <mxPoint x="190" y="530" as="sourcePoint" />
            <Array as="points">
              <mxPoint x="190" y="530" />
              <mxPoint x="190" y="500" />
              <mxPoint x="140" y="500" />
            </Array>
          </mxGeometry>
        </mxCell>
        <mxCell id="dcGf15FAC06Pwwm3CJWd-34" value="8" style="ellipse;whiteSpace=wrap;html=1;aspect=fixed;strokeWidth=2;fontFamily=Tahoma;spacingBottom=4;spacingRight=2;strokeColor=#6c8ebf;fillStyle=solid;fillColor=#dae8fc;sketch=1;" parent="1" vertex="1">
          <mxGeometry x="90" y="470" width="20" height="20" as="geometry" />
        </mxCell>
        <mxCell id="dcGf15FAC06Pwwm3CJWd-35" value="Uses Token &lt;br&gt;to Authenticate" style="text;html=1;align=center;verticalAlign=middle;resizable=0;points=[];autosize=1;strokeColor=none;fillColor=none;fontFamily=Comic Sans MS;sketch=1;" parent="1" vertex="1">
          <mxGeometry x="105" y="465" width="110" height="30" as="geometry" />
        </mxCell>
        <mxCell id="dcGf15FAC06Pwwm3CJWd-36" value="9" style="ellipse;whiteSpace=wrap;html=1;aspect=fixed;strokeWidth=2;fontFamily=Tahoma;spacingBottom=4;spacingRight=2;strokeColor=#6c8ebf;fillStyle=solid;fillColor=#dae8fc;" parent="1" vertex="1">
          <mxGeometry x="290" y="565" width="20" height="20" as="geometry" />
        </mxCell>
        <mxCell id="dcGf15FAC06Pwwm3CJWd-37" value="Stores Analytics Cookie" style="text;html=1;align=center;verticalAlign=middle;resizable=0;points=[];autosize=1;strokeColor=none;fillColor=none;fontFamily=Comic Sans MS;" parent="1" vertex="1">
          <mxGeometry x="250" y="580" width="150" height="20" as="geometry" />
        </mxCell>
        <mxCell id="dcGf15FAC06Pwwm3CJWd-38" value="1" style="ellipse;whiteSpace=wrap;html=1;aspect=fixed;strokeWidth=2;fontFamily=Tahoma;spacingBottom=4;spacingRight=2;strokeColor=#82b366;fillStyle=solid;fillColor=#d5e8d4;" parent="1" vertex="1">
          <mxGeometry x="530" y="640" width="20" height="20" as="geometry" />
        </mxCell>
        <mxCell id="dcGf15FAC06Pwwm3CJWd-39" value="Browses to" style="text;html=1;align=center;verticalAlign=middle;resizable=0;points=[];autosize=1;strokeColor=none;fillColor=none;fontFamily=Comic Sans MS;" parent="1" vertex="1">
          <mxGeometry x="550" y="640" width="80" height="20" as="geometry" />
        </mxCell>
        <mxCell id="dcGf15FAC06Pwwm3CJWd-48" value="Stores Core Token Cookie" style="text;html=1;align=center;verticalAlign=middle;resizable=0;points=[];autosize=1;strokeColor=none;fillColor=none;fontFamily=Comic Sans MS;" parent="1" vertex="1">
          <mxGeometry x="480" y="577" width="170" height="30" as="geometry" />
        </mxCell>
        <mxCell id="dcGf15FAC06Pwwm3CJWd-49" value="&lt;font style=&quot;font-size: 14px&quot;&gt;Inno SSO in PatSnap&lt;/font&gt;" style="text;html=1;align=center;verticalAlign=middle;resizable=0;points=[];autosize=1;strokeColor=none;fillColor=none;fontFamily=Comic Sans MS;" parent="1" vertex="1">
          <mxGeometry x="667" y="210" width="160" height="30" as="geometry" />
        </mxCell>
        <mxCell id="dcGf15FAC06Pwwm3CJWd-50" value="2" style="ellipse;whiteSpace=wrap;html=1;aspect=fixed;strokeWidth=2;fontFamily=Tahoma;spacingBottom=4;spacingRight=2;strokeColor=#6c8ebf;fillStyle=solid;fillColor=#dae8fc;sketch=1;" parent="1" vertex="1">
          <mxGeometry x="215" y="445" width="20" height="20" as="geometry" />
        </mxCell>
        <mxCell id="dcGf15FAC06Pwwm3CJWd-57" value="2" style="ellipse;whiteSpace=wrap;html=1;aspect=fixed;strokeWidth=2;fontFamily=Tahoma;spacingBottom=4;spacingRight=2;strokeColor=#82b366;fillStyle=solid;fillColor=#d5e8d4;" parent="1" vertex="1">
          <mxGeometry x="680" y="400" width="20" height="20" as="geometry" />
        </mxCell>
        <mxCell id="dcGf15FAC06Pwwm3CJWd-58" value="4" style="ellipse;whiteSpace=wrap;html=1;aspect=fixed;strokeWidth=2;fontFamily=Tahoma;spacingBottom=4;spacingRight=2;strokeColor=#82b366;fillStyle=solid;fillColor=#d5e8d4;sketch=1;" parent="1" vertex="1">
          <mxGeometry x="508" y="471" width="20" height="20" as="geometry" />
        </mxCell>
        <mxCell id="dcGf15FAC06Pwwm3CJWd-61" value="3" style="ellipse;whiteSpace=wrap;html=1;aspect=fixed;strokeWidth=2;fontFamily=Tahoma;spacingBottom=4;spacingRight=2;strokeColor=#82b366;fillStyle=solid;fillColor=#d5e8d4;sketch=1;" parent="1" vertex="1">
          <mxGeometry x="510" y="385" width="20" height="20" as="geometry" />
        </mxCell>
        <mxCell id="dcGf15FAC06Pwwm3CJWd-63" value="2" style="ellipse;whiteSpace=wrap;html=1;aspect=fixed;strokeWidth=2;fontFamily=Tahoma;spacingBottom=4;spacingRight=2;strokeColor=#82b366;fillStyle=solid;fillColor=#d5e8d4;" parent="1" vertex="1">
          <mxGeometry x="590" y="410" width="20" height="20" as="geometry" />
        </mxCell>
        <mxCell id="dcGf15FAC06Pwwm3CJWd-73" value="5" style="ellipse;whiteSpace=wrap;html=1;aspect=fixed;strokeWidth=2;fontFamily=Tahoma;spacingBottom=4;spacingRight=2;strokeColor=#82b366;fillStyle=solid;fillColor=#d5e8d4;" parent="1" vertex="1">
          <mxGeometry x="540" y="565" width="20" height="20" as="geometry" />
        </mxCell>
        <mxCell id="dcGf15FAC06Pwwm3CJWd-100" style="edgeStyle=orthogonalEdgeStyle;rounded=0;sketch=1;jumpStyle=none;orthogonalLoop=1;jettySize=auto;html=1;entryX=0.5;entryY=1;entryDx=0;entryDy=0;shadow=0;fontFamily=Comic Sans MS;fillColor=#fff2cc;strokeColor=#d6b656;" parent="1" source="dcGf15FAC06Pwwm3CJWd-74" target="dcGf15FAC06Pwwm3CJWd-85" edge="1">
          <mxGeometry relative="1" as="geometry" />
        </mxCell>
        <mxCell id="dcGf15FAC06Pwwm3CJWd-74" value="&lt;font face=&quot;Comic Sans MS&quot;&gt;Inno Gateway&lt;/font&gt;" style="sketch=0;outlineConnect=0;fontColor=#232F3E;gradientColor=none;strokeColor=#232F3E;fillColor=none;dashed=0;verticalLabelPosition=bottom;verticalAlign=top;align=center;html=1;fontSize=12;fontStyle=0;aspect=fixed;shape=mxgraph.aws4.resourceIcon;resIcon=mxgraph.aws4.nat_gateway;" parent="1" vertex="1">
          <mxGeometry x="1158" y="432.5" width="60" height="60" as="geometry" />
        </mxCell>
        <mxCell id="dcGf15FAC06Pwwm3CJWd-80" style="edgeStyle=orthogonalEdgeStyle;orthogonalLoop=1;jettySize=auto;html=1;fontFamily=Comic Sans MS;startArrow=none;startFill=0;curved=1;fillColor=#d5e8d4;strokeColor=#82b366;sketch=1;entryX=1;entryY=0;entryDx=0;entryDy=0;exitX=1;exitY=1;exitDx=0;exitDy=0;exitPerimeter=0;shadow=0;" parent="1" source="dcGf15FAC06Pwwm3CJWd-10" target="dcGf15FAC06Pwwm3CJWd-10" edge="1">
          <mxGeometry relative="1" as="geometry">
            <mxPoint x="750" y="580" as="sourcePoint" />
            <Array as="points">
              <mxPoint x="770" y="580" />
              <mxPoint x="770" y="530" />
            </Array>
            <mxPoint x="760" y="560" as="targetPoint" />
          </mxGeometry>
        </mxCell>
        <mxCell id="dcGf15FAC06Pwwm3CJWd-83" value="&lt;span style=&quot;font-size: 12px; background-color: rgb(248, 249, 250);&quot;&gt;Generate And&lt;/span&gt;&lt;br style=&quot;font-size: 12px; background-color: rgb(248, 249, 250);&quot;&gt;&lt;span style=&quot;font-size: 12px; background-color: rgb(248, 249, 250);&quot;&gt;Stores Inno Token&lt;/span&gt;" style="edgeLabel;html=1;align=center;verticalAlign=middle;resizable=0;points=[];fontFamily=Comic Sans MS;" parent="dcGf15FAC06Pwwm3CJWd-80" vertex="1" connectable="0">
          <mxGeometry x="-0.0818" y="1" relative="1" as="geometry">
            <mxPoint x="41" y="21" as="offset" />
          </mxGeometry>
        </mxCell>
        <mxCell id="dcGf15FAC06Pwwm3CJWd-81" value="6" style="ellipse;whiteSpace=wrap;html=1;aspect=fixed;strokeWidth=2;fontFamily=Tahoma;spacingBottom=4;spacingRight=2;strokeColor=#82b366;fillStyle=solid;fillColor=#d5e8d4;" parent="1" vertex="1">
          <mxGeometry x="770" y="545" width="20" height="20" as="geometry" />
        </mxCell>
        <mxCell id="dcGf15FAC06Pwwm3CJWd-84" value="account-service.zhihuiya.com" style="rounded=0;whiteSpace=wrap;html=1;fontFamily=Comic Sans MS;fillColor=#f5f5f5;fontColor=#333333;strokeColor=#666666;fillStyle=solid;sketch=1;" parent="1" vertex="1">
          <mxGeometry x="918" y="317.5" width="140" height="50" as="geometry" />
        </mxCell>
        <mxCell id="dcGf15FAC06Pwwm3CJWd-85" value="yunchuang-service.inno.com" style="rounded=0;whiteSpace=wrap;html=1;fontFamily=Comic Sans MS;fillColor=#fff2cc;strokeColor=#d6b656;fillStyle=solid;sketch=1;" parent="1" vertex="1">
          <mxGeometry x="1118" y="317.5" width="140" height="50" as="geometry" />
        </mxCell>
        <mxCell id="dcGf15FAC06Pwwm3CJWd-96" style="edgeStyle=orthogonalEdgeStyle;rounded=0;sketch=1;jumpStyle=none;orthogonalLoop=1;jettySize=auto;html=1;entryX=0.5;entryY=1;entryDx=0;entryDy=0;shadow=0;fontFamily=Comic Sans MS;fillColor=#d5e8d4;strokeColor=#82b366;" parent="1" source="dcGf15FAC06Pwwm3CJWd-87" target="dcGf15FAC06Pwwm3CJWd-84" edge="1">
          <mxGeometry relative="1" as="geometry" />
        </mxCell>
        <mxCell id="dcGf15FAC06Pwwm3CJWd-87" value="&lt;font face=&quot;Comic Sans MS&quot;&gt;Core Gateway&lt;/font&gt;" style="sketch=0;outlineConnect=0;fontColor=#232F3E;gradientColor=none;strokeColor=#232F3E;fillColor=none;dashed=0;verticalLabelPosition=bottom;verticalAlign=top;align=center;html=1;fontSize=12;fontStyle=0;aspect=fixed;shape=mxgraph.aws4.resourceIcon;resIcon=mxgraph.aws4.nat_gateway;" parent="1" vertex="1">
          <mxGeometry x="958" y="432.5" width="60" height="60" as="geometry" />
        </mxCell>
        <mxCell id="dcGf15FAC06Pwwm3CJWd-91" value="7" style="ellipse;whiteSpace=wrap;html=1;aspect=fixed;strokeWidth=2;fontFamily=Tahoma;spacingBottom=4;spacingRight=2;strokeColor=#82b366;fillStyle=solid;fillColor=#d5e8d4;" parent="1" vertex="1">
          <mxGeometry x="530" y="445" width="20" height="20" as="geometry" />
        </mxCell>
        <mxCell id="dcGf15FAC06Pwwm3CJWd-92" value="" style="edgeStyle=orthogonalEdgeStyle;rounded=0;sketch=1;jumpStyle=none;orthogonalLoop=1;jettySize=auto;html=1;entryX=1;entryY=0.5;entryDx=0;entryDy=0;shadow=0;fontFamily=Comic Sans MS;endArrow=none;fillColor=#d5e8d4;strokeColor=#82b366;" parent="1" source="dcGf15FAC06Pwwm3CJWd-10" target="dcGf15FAC06Pwwm3CJWd-91" edge="1">
          <mxGeometry relative="1" as="geometry">
            <mxPoint x="670" y="530" as="sourcePoint" />
            <mxPoint x="510" y="455" as="targetPoint" />
            <Array as="points">
              <mxPoint x="670" y="455" />
            </Array>
          </mxGeometry>
        </mxCell>
        <mxCell id="dcGf15FAC06Pwwm3CJWd-93" value="Refresh Core Token" style="edgeLabel;html=1;align=center;verticalAlign=middle;resizable=0;points=[];fontFamily=Comic Sans MS;" parent="dcGf15FAC06Pwwm3CJWd-92" vertex="1" connectable="0">
          <mxGeometry x="0.8462" y="-3" relative="1" as="geometry">
            <mxPoint x="45" y="6" as="offset" />
          </mxGeometry>
        </mxCell>
        <mxCell id="dcGf15FAC06Pwwm3CJWd-95" value="8" style="ellipse;whiteSpace=wrap;html=1;aspect=fixed;strokeWidth=2;fontFamily=Tahoma;spacingBottom=4;spacingRight=2;strokeColor=#82b366;fillStyle=solid;fillColor=#d5e8d4;" parent="1" vertex="1">
          <mxGeometry x="750" y="445" width="20" height="20" as="geometry" />
        </mxCell>
        <mxCell id="dcGf15FAC06Pwwm3CJWd-99" value="9" style="ellipse;whiteSpace=wrap;html=1;aspect=fixed;strokeWidth=2;fontFamily=Tahoma;spacingBottom=4;spacingRight=2;strokeColor=#82b366;fillStyle=solid;fillColor=#d5e8d4;" parent="1" vertex="1">
          <mxGeometry x="860" y="620" width="20" height="20" as="geometry" />
        </mxCell>
        <mxCell id="--sayNJ48d4q8vx2eoxx-11" value="&lt;font style=&quot;font-size: 16px;&quot;&gt;&lt;b&gt;&lt;i&gt;X&lt;/i&gt;&lt;/b&gt;&lt;/font&gt;" style="text;html=1;align=center;verticalAlign=middle;resizable=0;points=[];autosize=1;strokeColor=none;fillColor=none;fontFamily=Comic Sans MS;fontColor=#FF0000;" vertex="1" parent="1">
          <mxGeometry x="620" y="415" width="40" height="30" as="geometry" />
        </mxCell>
        <mxCell id="--sayNJ48d4q8vx2eoxx-13" value="&lt;font style=&quot;font-size: 16px;&quot;&gt;&lt;b&gt;&lt;i&gt;X&lt;/i&gt;&lt;/b&gt;&lt;/font&gt;" style="text;html=1;align=center;verticalAlign=middle;resizable=0;points=[];autosize=1;strokeColor=none;fillColor=none;fontFamily=Comic Sans MS;fontColor=#FF0000;" vertex="1" parent="1">
          <mxGeometry x="630" y="450" width="40" height="30" as="geometry" />
        </mxCell>
      </root>
    </mxGraphModel>
  </diagram>
  <diagram id="eWLDQkWMyI_EUQf4suzm" name="第 2 页">
    <mxGraphModel dx="1185" dy="773" grid="1" gridSize="10" guides="1" tooltips="1" connect="1" arrows="1" fold="1" page="1" pageScale="1" pageWidth="827" pageHeight="1169" math="0" shadow="0">
      <root>
        <mxCell id="0" />
        <mxCell id="1" parent="0" />
        <mxCell id="1LDfN-X6wONoSfxq1nkH-1" style="edgeStyle=orthogonalEdgeStyle;rounded=0;orthogonalLoop=1;jettySize=auto;html=1;entryX=0.5;entryY=1;entryDx=0;entryDy=0;fontFamily=Comic Sans MS;fillColor=#d5e8d4;strokeColor=#82b366;sketch=1;" edge="1" parent="1" source="1LDfN-X6wONoSfxq1nkH-2" target="1LDfN-X6wONoSfxq1nkH-11">
          <mxGeometry relative="1" as="geometry" />
        </mxCell>
        <mxCell id="1LDfN-X6wONoSfxq1nkH-2" value="User" style="outlineConnect=0;fontColor=#232F3E;gradientColor=none;strokeColor=#232F3E;fillColor=none;dashed=0;verticalLabelPosition=bottom;verticalAlign=top;align=center;html=1;fontSize=12;fontStyle=0;aspect=fixed;shape=mxgraph.aws4.resourceIcon;resIcon=mxgraph.aws4.user;fontFamily=Comic Sans MS;sketch=0;" vertex="1" parent="1">
          <mxGeometry x="88" y="500" width="60" height="60" as="geometry" />
        </mxCell>
        <mxCell id="1LDfN-X6wONoSfxq1nkH-3" value="" style="edgeStyle=orthogonalEdgeStyle;curved=1;orthogonalLoop=1;jettySize=auto;html=1;fontFamily=Comic Sans MS;fillColor=#d5e8d4;strokeColor=#82b366;sketch=1;" edge="1" parent="1" source="1LDfN-X6wONoSfxq1nkH-11" target="1LDfN-X6wONoSfxq1nkH-16">
          <mxGeometry relative="1" as="geometry" />
        </mxCell>
        <mxCell id="1LDfN-X6wONoSfxq1nkH-4" style="edgeStyle=orthogonalEdgeStyle;rounded=0;orthogonalLoop=1;jettySize=auto;html=1;entryX=1;entryY=0.25;entryDx=0;entryDy=0;fontFamily=Comic Sans MS;startArrow=none;startFill=0;fillColor=#d5e8d4;strokeColor=#82b366;sketch=1;exitX=0.5;exitY=0;exitDx=0;exitDy=0;" edge="1" parent="1" target="1LDfN-X6wONoSfxq1nkH-15" source="1LDfN-X6wONoSfxq1nkH-11">
          <mxGeometry relative="1" as="geometry">
            <Array as="points">
              <mxPoint x="354" y="180" />
            </Array>
            <mxPoint x="378" y="430" as="sourcePoint" />
          </mxGeometry>
        </mxCell>
        <mxCell id="1LDfN-X6wONoSfxq1nkH-5" value="&lt;font face=&quot;Comic Sans MS&quot;&gt;Redirect to account&lt;/font&gt;" style="edgeLabel;html=1;align=center;verticalAlign=middle;resizable=0;points=[];" vertex="1" connectable="0" parent="1LDfN-X6wONoSfxq1nkH-4">
          <mxGeometry x="-0.4417" y="-4" relative="1" as="geometry">
            <mxPoint x="-42" y="-10" as="offset" />
          </mxGeometry>
        </mxCell>
        <mxCell id="1LDfN-X6wONoSfxq1nkH-6" style="edgeStyle=orthogonalEdgeStyle;rounded=0;sketch=1;orthogonalLoop=1;jettySize=auto;html=1;fontFamily=Comic Sans MS;jumpStyle=none;fillColor=#d5e8d4;strokeColor=#82b366;startArrow=none;exitX=0.855;exitY=0.03;exitDx=0;exitDy=0;exitPerimeter=0;" edge="1" parent="1" source="1LDfN-X6wONoSfxq1nkH-11" target="1LDfN-X6wONoSfxq1nkH-44">
          <mxGeometry relative="1" as="geometry">
            <mxPoint x="488" y="360" as="targetPoint" />
            <Array as="points" />
          </mxGeometry>
        </mxCell>
        <mxCell id="8tpcsEQfSTgW4YljV44M-24" value="Request With Core Token&lt;br&gt;Refresh Token" style="edgeLabel;html=1;align=center;verticalAlign=middle;resizable=0;points=[];fontFamily=Comic Sans MS;" vertex="1" connectable="0" parent="1LDfN-X6wONoSfxq1nkH-6">
          <mxGeometry x="0.3962" relative="1" as="geometry">
            <mxPoint x="52" as="offset" />
          </mxGeometry>
        </mxCell>
        <mxCell id="1LDfN-X6wONoSfxq1nkH-9" style="edgeStyle=orthogonalEdgeStyle;rounded=0;sketch=1;jumpStyle=none;orthogonalLoop=1;jettySize=auto;html=1;shadow=0;fontFamily=Comic Sans MS;exitX=0.75;exitY=1;exitDx=0;exitDy=0;fillColor=#fff2cc;strokeColor=#d6b656;" edge="1" parent="1" source="1LDfN-X6wONoSfxq1nkH-11" target="1LDfN-X6wONoSfxq1nkH-37">
          <mxGeometry relative="1" as="geometry">
            <Array as="points">
              <mxPoint x="383" y="520" />
              <mxPoint x="866" y="520" />
            </Array>
          </mxGeometry>
        </mxCell>
        <mxCell id="1LDfN-X6wONoSfxq1nkH-10" value="Request With Inno Token" style="edgeLabel;html=1;align=center;verticalAlign=middle;resizable=0;points=[];fontFamily=Comic Sans MS;" vertex="1" connectable="0" parent="1LDfN-X6wONoSfxq1nkH-9">
          <mxGeometry x="-0.0561" y="-1" relative="1" as="geometry">
            <mxPoint as="offset" />
          </mxGeometry>
        </mxCell>
        <mxCell id="8tpcsEQfSTgW4YljV44M-18" style="edgeStyle=orthogonalEdgeStyle;rounded=0;sketch=1;orthogonalLoop=1;jettySize=auto;html=1;entryX=0.5;entryY=1;entryDx=0;entryDy=0;fontFamily=Comic Sans MS;exitX=1;exitY=0;exitDx=0;exitDy=0;" edge="1" parent="1" source="1LDfN-X6wONoSfxq1nkH-11" target="1LDfN-X6wONoSfxq1nkH-41">
          <mxGeometry relative="1" as="geometry">
            <Array as="points">
              <mxPoint x="420" y="430" />
              <mxPoint x="420" y="390" />
              <mxPoint x="666" y="390" />
            </Array>
          </mxGeometry>
        </mxCell>
        <mxCell id="8tpcsEQfSTgW4YljV44M-22" value="Get Token By Ticket" style="edgeLabel;html=1;align=center;verticalAlign=middle;resizable=0;points=[];fontFamily=Comic Sans MS;" vertex="1" connectable="0" parent="8tpcsEQfSTgW4YljV44M-18">
          <mxGeometry x="-0.2879" y="4" relative="1" as="geometry">
            <mxPoint x="41" y="5" as="offset" />
          </mxGeometry>
        </mxCell>
        <mxCell id="1LDfN-X6wONoSfxq1nkH-11" value="yunchuang.inno.com" style="rounded=0;whiteSpace=wrap;html=1;fontFamily=Comic Sans MS;fillColor=#fff2cc;strokeColor=#d6b656;fillStyle=solid;sketch=1;" vertex="1" parent="1">
          <mxGeometry x="278" y="430" width="152" height="50" as="geometry" />
        </mxCell>
        <mxCell id="1LDfN-X6wONoSfxq1nkH-12" value="" style="edgeStyle=orthogonalEdgeStyle;rounded=0;orthogonalLoop=1;jettySize=auto;html=1;fontFamily=Comic Sans MS;startArrow=none;startFill=0;sketch=1;" edge="1" parent="1" target="1LDfN-X6wONoSfxq1nkH-20">
          <mxGeometry relative="1" as="geometry">
            <mxPoint x="118" y="220" as="sourcePoint" />
          </mxGeometry>
        </mxCell>
        <mxCell id="8tpcsEQfSTgW4YljV44M-1" value="&lt;span style=&quot;font-family: &amp;quot;Comic Sans MS&amp;quot;; font-size: 12px; background-color: rgb(248, 249, 250);&quot;&gt;LoginSubmit&lt;/span&gt;" style="edgeLabel;html=1;align=center;verticalAlign=middle;resizable=0;points=[];" vertex="1" connectable="0" parent="1LDfN-X6wONoSfxq1nkH-12">
          <mxGeometry x="0.0182" y="2" relative="1" as="geometry">
            <mxPoint x="-18" y="2" as="offset" />
          </mxGeometry>
        </mxCell>
        <mxCell id="8tpcsEQfSTgW4YljV44M-12" style="edgeStyle=orthogonalEdgeStyle;rounded=0;sketch=1;orthogonalLoop=1;jettySize=auto;html=1;entryX=0.65;entryY=-0.03;entryDx=0;entryDy=0;fontFamily=Comic Sans MS;exitX=0.5;exitY=0;exitDx=0;exitDy=0;fillColor=#d5e8d4;strokeColor=#82b366;entryPerimeter=0;" edge="1" parent="1" source="1LDfN-X6wONoSfxq1nkH-15" target="1LDfN-X6wONoSfxq1nkH-11">
          <mxGeometry relative="1" as="geometry">
            <mxPoint x="198" y="150" as="sourcePoint" />
          </mxGeometry>
        </mxCell>
        <mxCell id="8tpcsEQfSTgW4YljV44M-14" value="Redirect with one-time ticket" style="edgeLabel;html=1;align=center;verticalAlign=middle;resizable=0;points=[];fontFamily=Comic Sans MS;" vertex="1" connectable="0" parent="8tpcsEQfSTgW4YljV44M-12">
          <mxGeometry x="-0.578" y="-1" relative="1" as="geometry">
            <mxPoint x="28" y="-10" as="offset" />
          </mxGeometry>
        </mxCell>
        <mxCell id="1LDfN-X6wONoSfxq1nkH-15" value="account.zhihuiya.com" style="rounded=0;whiteSpace=wrap;html=1;fontFamily=Comic Sans MS;fillColor=#f5f5f5;fontColor=#333333;strokeColor=#666666;fillStyle=solid;sketch=1;" vertex="1" parent="1">
          <mxGeometry x="48" y="167.5" width="280" height="50" as="geometry" />
        </mxCell>
        <mxCell id="1LDfN-X6wONoSfxq1nkH-16" value="Browser Cookie Storage" style="rounded=0;whiteSpace=wrap;html=1;fontFamily=Comic Sans MS;fillColor=#ffe6cc;strokeColor=#d79b00;fillStyle=solid;sketch=1;" vertex="1" parent="1">
          <mxGeometry x="48" y="430" width="140" height="50" as="geometry" />
        </mxCell>
        <mxCell id="1LDfN-X6wONoSfxq1nkH-17" value="" style="edgeStyle=orthogonalEdgeStyle;orthogonalLoop=1;jettySize=auto;html=1;fontFamily=Comic Sans MS;rounded=0;startArrow=none;startFill=1;sketch=1;" edge="1" parent="1" target="1LDfN-X6wONoSfxq1nkH-16">
          <mxGeometry relative="1" as="geometry">
            <mxPoint x="118" y="412.5" as="sourcePoint" />
          </mxGeometry>
        </mxCell>
        <mxCell id="8tpcsEQfSTgW4YljV44M-5" style="edgeStyle=orthogonalEdgeStyle;rounded=0;sketch=1;orthogonalLoop=1;jettySize=auto;html=1;exitX=0.75;exitY=0;exitDx=0;exitDy=0;" edge="1" parent="1">
          <mxGeometry relative="1" as="geometry">
            <mxPoint x="155" y="330" as="sourcePoint" />
            <mxPoint x="155" y="220" as="targetPoint" />
          </mxGeometry>
        </mxCell>
        <mxCell id="8tpcsEQfSTgW4YljV44M-6" value="&lt;font face=&quot;Comic Sans MS&quot;&gt;return tokens&lt;/font&gt;" style="edgeLabel;html=1;align=center;verticalAlign=middle;resizable=0;points=[];" vertex="1" connectable="0" parent="8tpcsEQfSTgW4YljV44M-5">
          <mxGeometry x="0.5273" y="2" relative="1" as="geometry">
            <mxPoint x="8" as="offset" />
          </mxGeometry>
        </mxCell>
        <mxCell id="1LDfN-X6wONoSfxq1nkH-20" value="passport.zhihuiya.com" style="rounded=0;whiteSpace=wrap;html=1;fontFamily=Comic Sans MS;fillColor=#ffe6cc;strokeColor=#d79b00;fillStyle=solid;sketch=1;" vertex="1" parent="1">
          <mxGeometry x="48" y="330" width="140" height="50" as="geometry" />
        </mxCell>
        <mxCell id="1LDfN-X6wONoSfxq1nkH-21" value="3" style="ellipse;whiteSpace=wrap;html=1;aspect=fixed;strokeWidth=2;fontFamily=Tahoma;spacingBottom=4;spacingRight=2;strokeColor=#82b366;fillStyle=solid;fillColor=#d5e8d4;sketch=1;" vertex="1" parent="1">
          <mxGeometry x="38" y="140" width="20" height="20" as="geometry" />
        </mxCell>
        <mxCell id="1LDfN-X6wONoSfxq1nkH-22" value="User logs in from Inno" style="text;html=1;align=center;verticalAlign=middle;resizable=0;points=[];autosize=1;strokeColor=none;fillColor=none;fontFamily=Comic Sans MS;" vertex="1" parent="1">
          <mxGeometry x="8" y="110" width="150" height="30" as="geometry" />
        </mxCell>
        <mxCell id="1LDfN-X6wONoSfxq1nkH-23" style="edgeStyle=orthogonalEdgeStyle;orthogonalLoop=1;jettySize=auto;html=1;fontFamily=Comic Sans MS;curved=1;sketch=1;entryX=0.23;entryY=-0.05;entryDx=0;entryDy=0;entryPerimeter=0;exitX=0.05;exitY=-0.05;exitDx=0;exitDy=0;exitPerimeter=0;" edge="1" parent="1">
          <mxGeometry relative="1" as="geometry">
            <Array as="points">
              <mxPoint x="63" y="133" />
              <mxPoint x="117" y="133" />
            </Array>
            <mxPoint x="63" y="165" as="sourcePoint" />
            <mxPoint x="117" y="168" as="targetPoint" />
          </mxGeometry>
        </mxCell>
        <mxCell id="1LDfN-X6wONoSfxq1nkH-25" value="4" style="ellipse;whiteSpace=wrap;html=1;aspect=fixed;strokeWidth=2;fontFamily=Tahoma;spacingBottom=4;spacingRight=2;strokeColor=#82b366;fillStyle=solid;fillColor=#d5e8d4;sketch=1;" vertex="1" parent="1">
          <mxGeometry x="92" y="300" width="20" height="20" as="geometry" />
        </mxCell>
        <mxCell id="1LDfN-X6wONoSfxq1nkH-26" value="5" style="ellipse;whiteSpace=wrap;html=1;aspect=fixed;strokeWidth=2;fontFamily=Tahoma;spacingBottom=4;spacingRight=2;strokeColor=#6c8ebf;fillStyle=solid;fillColor=#dae8fc;sketch=1;" vertex="1" parent="1">
          <mxGeometry x="138" y="400" width="20" height="20" as="geometry" />
        </mxCell>
        <mxCell id="1LDfN-X6wONoSfxq1nkH-28" value="1" style="ellipse;whiteSpace=wrap;html=1;aspect=fixed;strokeWidth=2;fontFamily=Tahoma;spacingBottom=4;spacingRight=2;strokeColor=#82b366;fillStyle=solid;fillColor=#d5e8d4;sketch=1;" vertex="1" parent="1">
          <mxGeometry x="208" y="540" width="20" height="20" as="geometry" />
        </mxCell>
        <mxCell id="1LDfN-X6wONoSfxq1nkH-29" value="Browses to" style="text;html=1;align=center;verticalAlign=middle;resizable=0;points=[];autosize=1;strokeColor=none;fillColor=none;fontFamily=Comic Sans MS;" vertex="1" parent="1">
          <mxGeometry x="228" y="540" width="80" height="20" as="geometry" />
        </mxCell>
        <mxCell id="1LDfN-X6wONoSfxq1nkH-30" value="Stores Core Token Cookie" style="text;html=1;align=center;verticalAlign=middle;resizable=0;points=[];autosize=1;strokeColor=none;fillColor=none;fontFamily=Comic Sans MS;" vertex="1" parent="1">
          <mxGeometry x="158" y="477" width="170" height="30" as="geometry" />
        </mxCell>
        <mxCell id="1LDfN-X6wONoSfxq1nkH-34" value="2" style="ellipse;whiteSpace=wrap;html=1;aspect=fixed;strokeWidth=2;fontFamily=Tahoma;spacingBottom=4;spacingRight=2;strokeColor=#82b366;fillStyle=solid;fillColor=#d5e8d4;sketch=1;" vertex="1" parent="1">
          <mxGeometry x="318" y="320" width="20" height="20" as="geometry" />
        </mxCell>
        <mxCell id="1LDfN-X6wONoSfxq1nkH-35" value="&lt;font face=&quot;Comic Sans MS&quot;&gt;10&lt;/font&gt;" style="ellipse;whiteSpace=wrap;html=1;aspect=fixed;strokeWidth=2;fontFamily=Tahoma;spacingBottom=4;spacingRight=2;strokeColor=#82b366;fillStyle=solid;fillColor=#d5e8d4;sketch=1;" vertex="1" parent="1">
          <mxGeometry x="218" y="465" width="20" height="20" as="geometry" />
        </mxCell>
        <mxCell id="1LDfN-X6wONoSfxq1nkH-36" style="edgeStyle=orthogonalEdgeStyle;rounded=0;sketch=1;jumpStyle=none;orthogonalLoop=1;jettySize=auto;html=1;entryX=0.5;entryY=1;entryDx=0;entryDy=0;shadow=0;fontFamily=Comic Sans MS;fillColor=#fff2cc;strokeColor=#d6b656;" edge="1" parent="1" source="1LDfN-X6wONoSfxq1nkH-37" target="1LDfN-X6wONoSfxq1nkH-42">
          <mxGeometry relative="1" as="geometry" />
        </mxCell>
        <mxCell id="1LDfN-X6wONoSfxq1nkH-37" value="&lt;font face=&quot;Comic Sans MS&quot;&gt;Inno Gateway&lt;/font&gt;" style="sketch=0;outlineConnect=0;fontColor=#232F3E;gradientColor=none;strokeColor=#232F3E;fillColor=none;dashed=0;verticalLabelPosition=bottom;verticalAlign=top;align=center;html=1;fontSize=12;fontStyle=0;aspect=fixed;shape=mxgraph.aws4.resourceIcon;resIcon=mxgraph.aws4.nat_gateway;" vertex="1" parent="1">
          <mxGeometry x="836" y="332.5" width="60" height="60" as="geometry" />
        </mxCell>
        <mxCell id="1LDfN-X6wONoSfxq1nkH-38" style="edgeStyle=orthogonalEdgeStyle;orthogonalLoop=1;jettySize=auto;html=1;fontFamily=Comic Sans MS;startArrow=none;startFill=0;curved=1;fillColor=#d5e8d4;strokeColor=#82b366;sketch=1;entryX=1;entryY=0;entryDx=0;entryDy=0;exitX=1;exitY=1;exitDx=0;exitDy=0;exitPerimeter=0;shadow=0;" edge="1" parent="1">
          <mxGeometry relative="1" as="geometry">
            <mxPoint x="431" y="480" as="sourcePoint" />
            <Array as="points">
              <mxPoint x="459" y="480" />
              <mxPoint x="459" y="430" />
            </Array>
            <mxPoint x="431" y="430" as="targetPoint" />
          </mxGeometry>
        </mxCell>
        <mxCell id="1LDfN-X6wONoSfxq1nkH-39" value="&lt;span style=&quot;font-size: 12px; background-color: rgb(248, 249, 250);&quot;&gt;Generate And&lt;/span&gt;&lt;br style=&quot;font-size: 12px; background-color: rgb(248, 249, 250);&quot;&gt;&lt;span style=&quot;font-size: 12px; background-color: rgb(248, 249, 250);&quot;&gt;Stores Inno Token&lt;/span&gt;" style="edgeLabel;html=1;align=center;verticalAlign=middle;resizable=0;points=[];fontFamily=Comic Sans MS;" vertex="1" connectable="0" parent="1LDfN-X6wONoSfxq1nkH-38">
          <mxGeometry x="-0.0818" y="1" relative="1" as="geometry">
            <mxPoint x="41" y="21" as="offset" />
          </mxGeometry>
        </mxCell>
        <mxCell id="1LDfN-X6wONoSfxq1nkH-40" value="12" style="ellipse;whiteSpace=wrap;html=1;aspect=fixed;strokeWidth=2;fontFamily=Tahoma;spacingBottom=4;spacingRight=2;strokeColor=#82b366;fillStyle=solid;fillColor=#d5e8d4;sketch=1;" vertex="1" parent="1">
          <mxGeometry x="459" y="445" width="20" height="20" as="geometry" />
        </mxCell>
        <mxCell id="1LDfN-X6wONoSfxq1nkH-41" value="account-service.zhihuiya.com" style="rounded=0;whiteSpace=wrap;html=1;fontFamily=Comic Sans MS;fillColor=#f5f5f5;fontColor=#333333;strokeColor=#666666;fillStyle=solid;sketch=1;" vertex="1" parent="1">
          <mxGeometry x="596" y="217.5" width="140" height="50" as="geometry" />
        </mxCell>
        <mxCell id="1LDfN-X6wONoSfxq1nkH-42" value="yunchuang-service.inno.com" style="rounded=0;whiteSpace=wrap;html=1;fontFamily=Comic Sans MS;fillColor=#fff2cc;strokeColor=#d6b656;fillStyle=solid;sketch=1;" vertex="1" parent="1">
          <mxGeometry x="796" y="217.5" width="140" height="50" as="geometry" />
        </mxCell>
        <mxCell id="1LDfN-X6wONoSfxq1nkH-43" style="edgeStyle=orthogonalEdgeStyle;rounded=0;sketch=1;jumpStyle=none;orthogonalLoop=1;jettySize=auto;html=1;entryX=0;entryY=0.5;entryDx=0;entryDy=0;shadow=0;fontFamily=Comic Sans MS;fillColor=#d5e8d4;strokeColor=#82b366;" edge="1" parent="1" source="1LDfN-X6wONoSfxq1nkH-44" target="1LDfN-X6wONoSfxq1nkH-41">
          <mxGeometry relative="1" as="geometry" />
        </mxCell>
        <mxCell id="1LDfN-X6wONoSfxq1nkH-44" value="&lt;font face=&quot;Comic Sans MS&quot;&gt;Core Gateway&lt;/font&gt;" style="sketch=0;outlineConnect=0;fontColor=#232F3E;gradientColor=none;strokeColor=#232F3E;fillColor=none;dashed=0;verticalLabelPosition=bottom;verticalAlign=top;align=center;html=1;fontSize=12;fontStyle=0;aspect=fixed;shape=mxgraph.aws4.resourceIcon;resIcon=mxgraph.aws4.nat_gateway;" vertex="1" parent="1">
          <mxGeometry x="378" y="212.5" width="60" height="60" as="geometry" />
        </mxCell>
        <mxCell id="1LDfN-X6wONoSfxq1nkH-49" value="13" style="ellipse;whiteSpace=wrap;html=1;aspect=fixed;strokeWidth=2;fontFamily=Tahoma;spacingBottom=4;spacingRight=2;strokeColor=#82b366;fillStyle=solid;fillColor=#d5e8d4;sketch=1;" vertex="1" parent="1">
          <mxGeometry x="538" y="520" width="20" height="20" as="geometry" />
        </mxCell>
        <mxCell id="8tpcsEQfSTgW4YljV44M-2" value="" style="edgeStyle=orthogonalEdgeStyle;orthogonalLoop=1;jettySize=auto;html=1;fontFamily=Comic Sans MS;rounded=0;startArrow=classic;startFill=1;sketch=1;endArrow=none;" edge="1" parent="1" source="1LDfN-X6wONoSfxq1nkH-20">
          <mxGeometry relative="1" as="geometry">
            <mxPoint x="118" y="380" as="sourcePoint" />
            <mxPoint x="118" y="392.5" as="targetPoint" />
          </mxGeometry>
        </mxCell>
        <mxCell id="8tpcsEQfSTgW4YljV44M-3" value="&lt;span style=&quot;font-family: &amp;quot;Comic Sans MS&amp;quot;; font-size: 12px; background-color: rgb(248, 249, 250);&quot;&gt;Store Cookies&lt;/span&gt;" style="edgeLabel;html=1;align=center;verticalAlign=middle;resizable=0;points=[];" vertex="1" connectable="0" parent="8tpcsEQfSTgW4YljV44M-2">
          <mxGeometry x="-0.4074" y="-3" relative="1" as="geometry">
            <mxPoint x="-29" y="3" as="offset" />
          </mxGeometry>
        </mxCell>
        <mxCell id="8tpcsEQfSTgW4YljV44M-4" value="6" style="ellipse;whiteSpace=wrap;html=1;aspect=fixed;strokeWidth=2;fontFamily=Tahoma;spacingBottom=4;spacingRight=2;strokeColor=#82b366;fillStyle=solid;fillColor=#d5e8d4;sketch=1;" vertex="1" parent="1">
          <mxGeometry x="166" y="260" width="20" height="20" as="geometry" />
        </mxCell>
        <mxCell id="8tpcsEQfSTgW4YljV44M-7" value="&lt;font face=&quot;Comic Sans MS&quot;&gt;7&lt;/font&gt;" style="ellipse;whiteSpace=wrap;html=1;aspect=fixed;strokeWidth=2;fontFamily=Tahoma;spacingBottom=4;spacingRight=2;strokeColor=#82b366;fillStyle=solid;fillColor=#d5e8d4;sketch=1;" vertex="1" parent="1">
          <mxGeometry x="208" y="80" width="20" height="20" as="geometry" />
        </mxCell>
        <mxCell id="8tpcsEQfSTgW4YljV44M-9" style="orthogonalLoop=1;jettySize=auto;html=1;fontFamily=Comic Sans MS;sketch=1;exitX=0.05;exitY=-0.05;exitDx=0;exitDy=0;exitPerimeter=0;edgeStyle=orthogonalEdgeStyle;rounded=0;" edge="1" parent="1" target="1LDfN-X6wONoSfxq1nkH-44">
          <mxGeometry relative="1" as="geometry">
            <Array as="points">
              <mxPoint x="153" y="110" />
              <mxPoint x="410" y="110" />
            </Array>
            <mxPoint x="153" y="165" as="sourcePoint" />
            <mxPoint x="410" y="210" as="targetPoint" />
          </mxGeometry>
        </mxCell>
        <mxCell id="8tpcsEQfSTgW4YljV44M-11" value="Store tokens with one-time ticket" style="edgeLabel;html=1;align=center;verticalAlign=middle;resizable=0;points=[];fontFamily=Comic Sans MS;" vertex="1" connectable="0" parent="8tpcsEQfSTgW4YljV44M-9">
          <mxGeometry x="-0.4502" y="2" relative="1" as="geometry">
            <mxPoint y="1" as="offset" />
          </mxGeometry>
        </mxCell>
        <mxCell id="8tpcsEQfSTgW4YljV44M-13" value="8" style="ellipse;whiteSpace=wrap;html=1;aspect=fixed;strokeWidth=2;fontFamily=Tahoma;spacingBottom=4;spacingRight=2;strokeColor=#82b366;fillStyle=solid;fillColor=#d5e8d4;sketch=1;" vertex="1" parent="1">
          <mxGeometry x="196" y="128" width="20" height="20" as="geometry" />
        </mxCell>
        <mxCell id="1LDfN-X6wONoSfxq1nkH-48" value="&lt;font face=&quot;Comic Sans MS&quot;&gt;9&lt;/font&gt;" style="ellipse;whiteSpace=wrap;html=1;aspect=fixed;strokeWidth=2;fontFamily=Tahoma;spacingBottom=4;spacingRight=2;strokeColor=#82b366;fillStyle=solid;fillColor=#d5e8d4;sketch=1;" vertex="1" parent="1">
          <mxGeometry x="479" y="372.5" width="20" height="20" as="geometry" />
        </mxCell>
        <mxCell id="8tpcsEQfSTgW4YljV44M-23" value="&lt;font face=&quot;Comic Sans MS&quot;&gt;11&lt;/font&gt;" style="ellipse;whiteSpace=wrap;html=1;aspect=fixed;strokeWidth=2;fontFamily=Tahoma;spacingBottom=4;spacingRight=2;strokeColor=#82b366;fillStyle=solid;fillColor=#d5e8d4;sketch=1;" vertex="1" parent="1">
          <mxGeometry x="390" y="340" width="20" height="20" as="geometry" />
        </mxCell>
      </root>
    </mxGraphModel>
  </diagram>
</mxfile>
